<svg version="1.1" id="Layer_1" xmlns="http://www.w3.org/2000/svg" xmlns:xlink="http://www.w3.org/1999/xlink" x="0px" y="0px"
	 width="100%" viewBox="0 0 515 455" enable-background="new 0 0 515 455" xml:space="preserve">
<path fill="#000000" opacity="1.000000" stroke="none" 
	d="
M309.000000,456.000000 
	C206.000031,456.000000 103.500046,456.000000 1.000055,456.000000 
	C1.000037,304.333405 1.000037,152.666794 1.000018,1.000136 
	C172.666565,1.000091 344.333130,1.000091 515.999756,1.000046 
	C515.999878,152.666519 515.999878,304.333038 515.999939,455.999786 
	C447.166656,456.000000 378.333344,456.000000 309.000000,456.000000 
M352.937012,364.008942 
	C374.050476,364.008942 395.163971,364.008942 416.277435,364.008942 
	C416.337646,363.464478 416.397827,362.920013 416.458038,362.375549 
	C415.515320,362.017822 414.587463,361.397369 413.627594,361.343109 
	C404.141052,360.806580 399.068146,354.988129 397.257996,346.498688 
	C395.600586,338.725983 394.318817,330.702118 394.282257,322.782410 
	C394.031372,268.454254 393.993195,214.123428 394.316467,159.796036 
	C394.367279,151.252167 396.142853,142.623367 397.953491,134.213058 
	C399.628998,126.430313 405.184784,122.165489 413.153503,121.189278 
	C414.260681,121.053642 415.341522,120.703331 416.434570,120.452385 
	C416.395569,119.965744 416.356567,119.479103 416.317596,118.992462 
	C414.799835,118.890778 413.282257,118.704269 411.764282,118.700943 
	C400.431519,118.676079 389.094879,118.851868 377.768036,118.591904 
	C374.154694,118.508972 372.690063,119.699211 371.451141,123.050079 
	C351.404358,177.269806 331.199524,231.431107 311.028839,285.605011 
	C307.310883,295.590637 303.585724,305.573608 299.587646,316.298920 
	C297.683075,312.317291 296.383179,309.062500 294.633911,306.070435 
	C292.096375,301.730072 291.783203,297.521606 292.635742,292.458069 
	C293.723663,285.996185 293.795807,279.174957 293.104126,272.635712 
	C290.639618,249.336060 276.450226,234.005020 257.735931,221.803497 
	C255.020660,220.033157 252.505661,217.212128 251.095688,214.297852 
	C236.332870,183.784698 221.805328,153.157639 207.247971,122.545326 
	C206.234940,120.415047 205.591919,118.538025 202.430405,118.600357 
	C191.101990,118.823738 179.766403,118.669266 168.433868,118.726608 
	C167.541458,118.731125 166.651733,119.266487 165.760773,119.555138 
	C165.594513,119.953705 165.428253,120.352272 165.261978,120.750839 
	C183.766800,121.471550 186.093948,134.732681 187.018219,148.288177 
	C188.003036,162.731613 187.939728,177.246735 188.300842,191.731384 
	C188.311096,192.142654 187.945053,192.563309 187.763260,192.960403 
	C172.496124,189.056580 146.439468,178.317307 133.615860,168.607056 
	C108.494812,149.585037 111.117760,120.029716 125.014252,100.456215 
	C135.198990,86.110809 149.329834,77.554886 165.876663,72.962181 
	C189.630356,66.369156 213.292923,66.787590 235.979141,77.136635 
	C252.165802,84.520714 264.217926,96.695580 272.526581,112.505264 
	C273.357391,114.086105 274.630127,115.434685 275.697784,116.891052 
	C276.054077,116.630531 276.410400,116.370003 276.766693,116.109482 
	C276.766693,103.498505 276.766693,90.887535 276.766693,78.327484 
	C245.678711,67.581657 213.914291,63.516850 181.436493,66.088249 
	C156.815079,68.037628 133.786667,74.822929 115.337051,92.432434 
	C98.775246,108.240097 92.052589,127.596001 95.783112,150.289459 
	C98.752304,168.351669 109.638191,181.013565 124.199104,191.113922 
	C142.675583,203.930374 163.772552,210.994217 184.578934,218.660065 
	C187.434875,219.712296 188.450272,220.831741 188.429871,223.850540 
	C188.204803,257.180481 188.349350,290.515076 187.818253,323.839233 
	C187.684677,332.221100 185.565582,340.580627 184.228531,348.929504 
	C183.674164,352.391174 181.915070,353.204102 178.247345,352.186920 
	C160.824554,347.355103 145.544495,338.714111 131.832855,327.101196 
	C119.441338,316.606323 109.097977,304.339020 100.275322,290.737000 
	C99.449318,289.463501 98.050873,288.561310 96.918205,287.486755 
	C95.820076,297.773010 96.209190,307.114014 95.689995,316.404266 
	C95.313072,323.148621 97.081024,327.397125 103.196739,331.301422 
	C122.959633,343.917969 143.414001,354.490326 166.833328,358.338348 
	C168.863449,358.671936 170.830872,359.387146 173.870483,360.206116 
	C170.297760,361.110809 168.051376,361.679657 165.804993,362.248474 
	C165.899582,362.638855 165.994171,363.029205 166.088745,363.419556 
	C188.069092,363.419556 210.049423,363.419556 232.029770,363.419556 
	C232.099182,363.062988 232.168594,362.706451 232.238007,362.349884 
	C227.569077,361.109314 222.900162,359.868713 218.348068,358.659149 
	C229.543579,354.058746 240.708771,350.632050 250.668930,345.053741 
	C260.773163,339.394806 269.687469,331.611206 279.026459,324.828186 
	C282.145538,331.369995 285.731018,338.889923 289.316467,346.409851 
	C289.922913,346.413605 290.529358,346.417358 291.135803,346.421082 
	C317.852600,274.458496 344.569397,202.495895 371.286224,130.533295 
	C371.785553,130.623550 372.284912,130.713791 372.784271,130.804031 
	C372.784271,132.354126 372.784393,133.904205 372.784241,135.454300 
	C372.778259,191.285080 372.810425,247.115906 372.728210,302.946564 
	C372.714722,312.107666 372.853088,321.346954 371.760712,330.410217 
	C370.127930,343.956787 371.145874,359.702332 351.254425,361.732117 
	C349.032196,361.958862 349.675690,363.871613 352.937012,364.008942 
z"/>
<path fill="#E8E7E7" opacity="1.000000" stroke="none" 
	d="
M352.488037,364.007355 
	C349.675690,363.871613 349.032196,361.958862 351.254425,361.732117 
	C371.145874,359.702332 370.127930,343.956787 371.760712,330.410217 
	C372.853088,321.346954 372.714722,312.107666 372.728210,302.946564 
	C372.810425,247.115906 372.778259,191.285080 372.784241,135.454300 
	C372.784393,133.904205 372.784271,132.354126 372.784271,130.804031 
	C372.284912,130.713791 371.785553,130.623550 371.286224,130.533295 
	C344.569397,202.495895 317.852600,274.458496 291.135803,346.421082 
	C290.529358,346.417358 289.922913,346.413605 289.316467,346.409851 
	C285.731018,338.889923 282.145538,331.369995 279.026459,324.828186 
	C269.687469,331.611206 260.773163,339.394806 250.668930,345.053741 
	C240.708771,350.632050 229.543579,354.058746 218.348068,358.659149 
	C222.900162,359.868713 227.569077,361.109314 232.238007,362.349884 
	C232.168594,362.706451 232.099182,363.062988 232.029770,363.419556 
	C210.049423,363.419556 188.069092,363.419556 166.088745,363.419556 
	C165.994171,363.029205 165.899582,362.638855 165.804993,362.248474 
	C168.051376,361.679657 170.297760,361.110809 173.870483,360.206116 
	C170.830872,359.387146 168.863449,358.671936 166.833328,358.338348 
	C143.414001,354.490326 122.959633,343.917969 103.196739,331.301422 
	C97.081024,327.397125 95.313072,323.148621 95.689995,316.404266 
	C96.209190,307.114014 95.820076,297.773010 96.918205,287.486755 
	C98.050873,288.561310 99.449318,289.463501 100.275322,290.737000 
	C109.097977,304.339020 119.441338,316.606323 131.832855,327.101196 
	C145.544495,338.714111 160.824554,347.355103 178.247345,352.186920 
	C181.915070,353.204102 183.674164,352.391174 184.228531,348.929504 
	C185.565582,340.580627 187.684677,332.221100 187.818253,323.839233 
	C188.349350,290.515076 188.204803,257.180481 188.429871,223.850540 
	C188.450272,220.831741 187.434875,219.712296 184.578934,218.660065 
	C163.772552,210.994217 142.675583,203.930374 124.199104,191.113922 
	C109.638191,181.013565 98.752304,168.351669 95.783112,150.289459 
	C92.052589,127.596001 98.775246,108.240097 115.337051,92.432434 
	C133.786667,74.822929 156.815079,68.037628 181.436493,66.088249 
	C213.914291,63.516850 245.678711,67.581657 276.766693,78.327484 
	C276.766693,90.887535 276.766693,103.498505 276.766693,116.109482 
	C276.410400,116.370003 276.054077,116.630531 275.697784,116.891052 
	C274.630127,115.434685 273.357391,114.086105 272.526581,112.505264 
	C264.217926,96.695580 252.165802,84.520714 235.979141,77.136635 
	C213.292923,66.787590 189.630356,66.369156 165.876663,72.962181 
	C149.329834,77.554886 135.198990,86.110809 125.014252,100.456215 
	C111.117760,120.029716 108.494812,149.585037 133.615860,168.607056 
	C146.439468,178.317307 172.496124,189.056580 187.763260,192.960403 
	C187.945053,192.563309 188.311096,192.142654 188.300842,191.731384 
	C187.939728,177.246735 188.003036,162.731613 187.018219,148.288177 
	C186.093948,134.732681 183.766800,121.471550 165.261978,120.750839 
	C165.428253,120.352272 165.594513,119.953705 165.760773,119.555138 
	C166.651733,119.266487 167.541458,118.731125 168.433868,118.726608 
	C179.766403,118.669266 191.101990,118.823738 202.430405,118.600357 
	C205.591919,118.538025 206.234940,120.415047 207.247971,122.545326 
	C221.805328,153.157639 236.332870,183.784698 251.095688,214.297852 
	C252.505661,217.212128 255.020660,220.033157 257.735931,221.803497 
	C276.450226,234.005020 290.639618,249.336060 293.104126,272.635712 
	C293.795807,279.174957 293.723663,285.996185 292.635742,292.458069 
	C291.783203,297.521606 292.096375,301.730072 294.633911,306.070435 
	C296.383179,309.062500 297.683075,312.317291 299.587646,316.298920 
	C303.585724,305.573608 307.310883,295.590637 311.028839,285.605011 
	C331.199524,231.431107 351.404358,177.269806 371.451141,123.050079 
	C372.690063,119.699211 374.154694,118.508972 377.768036,118.591904 
	C389.094879,118.851868 400.431519,118.676079 411.764282,118.700943 
	C413.282257,118.704269 414.799835,118.890778 416.317596,118.992462 
	C416.356567,119.479103 416.395569,119.965744 416.434570,120.452385 
	C415.341522,120.703331 414.260681,121.053642 413.153503,121.189278 
	C405.184784,122.165489 399.628998,126.430313 397.953491,134.213058 
	C396.142853,142.623367 394.367279,151.252167 394.316467,159.796036 
	C393.993195,214.123428 394.031372,268.454254 394.282257,322.782410 
	C394.318817,330.702118 395.600586,338.725983 397.257996,346.498688 
	C399.068146,354.988129 404.141052,360.806580 413.627594,361.343109 
	C414.587463,361.397369 415.515320,362.017822 416.458038,362.375549 
	C416.397827,362.920013 416.337646,363.464478 416.277435,364.008942 
	C395.163971,364.008942 374.050476,364.008942 352.488037,364.007355 
M227.410660,235.007904 
	C215.463821,230.295151 203.516998,225.582397 191.483826,220.835587 
	C191.483826,244.843262 191.029083,268.139069 191.686462,291.403442 
	C191.989594,302.131317 194.046371,312.878632 196.079391,323.469025 
	C198.069443,333.835480 202.048019,343.588226 209.350754,351.500641 
	C210.792953,353.063263 213.644501,354.528748 215.583389,354.244904 
	C237.280716,351.067902 254.780304,340.689331 267.898132,322.987793 
	C272.388733,316.928070 273.544800,311.476166 269.643036,304.015106 
	C261.110687,287.699219 253.439850,270.893677 246.222565,253.945145 
	C242.451813,245.090210 237.839218,237.945602 227.410660,235.007904 
M199.150452,153.348206 
	C196.741455,148.182129 194.332458,143.016037 191.923477,137.849960 
	C191.684296,137.934692 191.445114,138.019409 191.205933,138.104141 
	C191.205933,156.833817 191.205933,175.563507 191.205933,194.477722 
	C201.746216,198.160446 212.285782,201.842926 223.619522,205.802887 
	C215.324585,187.982086 207.418106,170.995834 199.150452,153.348206 
z"/>
<path fill="#010101" opacity="1.000000" stroke="none" 
	d="
M227.768982,235.138855 
	C237.839218,237.945602 242.451813,245.090210 246.222565,253.945145 
	C253.439850,270.893677 261.110687,287.699219 269.643036,304.015106 
	C273.544800,311.476166 272.388733,316.928070 267.898132,322.987793 
	C254.780304,340.689331 237.280716,351.067902 215.583389,354.244904 
	C213.644501,354.528748 210.792953,353.063263 209.350754,351.500641 
	C202.048019,343.588226 198.069443,333.835480 196.079391,323.469025 
	C194.046371,312.878632 191.989594,302.131317 191.686462,291.403442 
	C191.029083,268.139069 191.483826,244.843262 191.483826,220.835587 
	C203.516998,225.582397 215.463821,230.295151 227.768982,235.138855 
z"/>
<path fill="#040404" opacity="1.000000" stroke="none" 
	d="
M199.331039,153.678894 
	C207.418106,170.995834 215.324585,187.982086 223.619522,205.802887 
	C212.285782,201.842926 201.746216,198.160446 191.205933,194.477722 
	C191.205933,175.563507 191.205933,156.833817 191.205933,138.104141 
	C191.445114,138.019409 191.684296,137.934692 191.923477,137.849960 
	C194.332458,143.016037 196.741455,148.182129 199.331039,153.678894 
z"/>
</svg>